<?xml version="1.0" standalone="no"?>
<!DOCTYPE svg PUBLIC "-//W3C//DTD SVG 20010904//EN"
 "http://www.w3.org/TR/2001/REC-SVG-20010904/DTD/svg10.dtd">
<svg version="1.0" xmlns="http://www.w3.org/2000/svg"
 width="512.000000pt" height="512.000000pt" viewBox="0 0 512.000000 512.000000"
 preserveAspectRatio="xMidYMid meet">
<metadata>
Created by potrace 1.14, written by Peter Selinger 2001-2017
</metadata>
<g transform="translate(0.000000,512.000000) scale(0.100000,-0.100000)"
fill="#000000" stroke="none">
<path d="M2489 5092 l-34 -30 0 -261 0 -261 27 -27 c34 -34 111 -42 142 -15
41 37 44 57 42 314 l-1 248 -25 25 c-16 16 -41 27 -71 31 -42 6 -49 3 -80 -24z"/>
<path d="M791 4397 c-60 -21 -91 -87 -66 -137 16 -30 24 -40 167 -192 167
-179 166 -178 180 -179 7 -1 24 -3 38 -4 62 -7 126 70 113 135 -9 49 -362 396
-395 389 -2 0 -18 -5 -37 -12z"/>
<path d="M4242 4375 c-17 -8 -105 -88 -195 -180 -131 -132 -166 -173 -171
-200 -7 -34 4 -66 30 -93 20 -19 93 -23 124 -7 42 22 331 314 345 349 32 81
-52 164 -133 131z"/>
<path d="M2527 4054 c-1 -1 -40 -4 -86 -8 -174 -13 -360 -67 -531 -152 -465
-233 -777 -678 -835 -1190 -6 -53 -6 -240 0 -284 3 -19 7 -57 10 -84 22 -186
111 -418 232 -600 67 -100 216 -260 335 -359 115 -96 223 -271 252 -408 10
-44 14 -150 15 -341 1 -153 4 -297 7 -320 19 -135 103 -245 222 -291 38 -15
87 -17 430 -15 l387 3 53 29 c89 49 160 142 176 231 3 16 6 163 6 325 1 322 8
376 60 502 51 124 158 258 275 346 54 41 166 156 220 227 112 146 203 335 250
518 34 137 40 186 40 367 0 186 -6 246 -35 360 -127 499 -482 893 -949 1054
-155 54 -274 76 -489 90 -23 1 -43 2 -45 0z m233 -228 c14 -3 41 -9 60 -12 42
-7 167 -42 195 -54 202 -87 309 -156 428 -273 184 -182 296 -372 356 -607 28
-107 31 -139 36 -290 5 -160 -14 -293 -64 -439 -81 -237 -193 -392 -439 -609
-156 -137 -293 -372 -328 -563 -4 -24 -9 -47 -10 -51 -1 -5 -2 -23 -3 -41 l-1
-33 -427 0 -428 1 -3 35 c-5 70 -34 196 -59 260 -62 157 -154 278 -316 417
-171 147 -257 251 -335 409 -205 411 -180 879 66 1264 123 193 337 381 546
480 98 46 223 85 331 104 79 13 341 15 395 2z m226 -3353 c0 -89 -5 -177 -10
-195 -21 -64 -34 -66 -425 -64 -442 1 -412 -17 -416 251 -2 88 -1 163 2 168 2
4 194 6 426 5 l422 -3 1 -162z"/>
<path d="M2515 3511 c-52 -23 -75 -92 -49 -147 20 -41 44 -52 134 -59 261 -21
484 -163 613 -391 54 -96 83 -197 92 -319 3 -38 10 -80 17 -92 13 -26 67 -54
94 -49 93 19 109 47 100 175 -31 476 -419 862 -891 886 -49 3 -99 1 -110 -4z"/>
<path d="M74 2663 c-69 -12 -95 -126 -41 -180 l27 -28 260 0 260 0 27 28 c23
23 28 36 28 77 0 41 -5 54 -28 77 l-27 28 -243 1 c-133 0 -252 -1 -263 -3z"/>
<path d="M4544 2660 c-54 -20 -79 -94 -51 -150 26 -53 56 -58 322 -57 l245 2
27 28 c23 23 28 36 28 77 0 41 -5 54 -28 77 l-27 28 -248 1 c-136 1 -257 -2
-268 -6z"/>
<path d="M1064 1208 c-14 -11 -93 -88 -175 -170 -142 -142 -178 -187 -173
-215 1 -7 2 -19 3 -27 0 -8 11 -26 24 -40 21 -25 54 -32 119 -27 21 1 347 326
359 357 33 87 -85 178 -157 122z"/>
<path d="M3932 1213 c-54 -26 -75 -106 -40 -151 39 -50 317 -319 338 -327 14
-6 36 -10 50 -9 14 1 34 2 45 3 43 2 73 93 45 138 -19 32 -302 316 -338 341
-32 21 -64 23 -100 5z"/>
</g>
</svg>
